<svg width="707" height="532" viewBox="0 0 707 532" fill="none" xmlns="http://www.w3.org/2000/svg">
<path d="M588.688 0.835938H12.748C9.55892 0.840738 6.50182 2.10974 4.24682 4.36474C1.99172 6.61974 0.722818 9.67684 0.718018 12.8659V14.8059C0.722818 17.995 1.99172 21.0521 4.24682 23.3072C6.50182 25.5622 9.55892 26.8312 12.748 26.8359H588.688C591.877 26.8312 594.934 25.5622 597.189 23.3072C599.444 21.0521 600.713 17.995 600.718 14.8059V12.8659C600.713 9.67684 599.444 6.61974 597.189 4.36474C594.934 2.10974 591.877 0.840738 588.688 0.835938Z" fill="#F0F0F0"/>
<path d="M82.2534 18.6362H27.4305C26.2039 18.6344 25.0281 18.1458 24.1614 17.2778C23.2947 16.4098 22.8079 15.2334 22.8079 14.0067C22.8079 12.7801 23.2947 11.6036 24.1614 10.7356C25.0281 9.86757 26.2039 9.37906 27.4305 9.37726H82.2534C88.224 9.29386 88.283 18.7203 82.2534 18.6362Z" fill="white"/>
<path d="M246.253 18.6362H191.431C190.204 18.6344 189.028 18.1458 188.161 17.2778C187.295 16.4098 186.808 15.2334 186.808 14.0067C186.808 12.7801 187.295 11.6036 188.161 10.7356C189.028 9.86757 190.204 9.37906 191.431 9.37726H246.253C252.224 9.29386 252.283 18.7203 246.253 18.6362Z" fill="white"/>
<path d="M410.253 18.6362H355.431C354.204 18.6344 353.028 18.1458 352.161 17.2778C351.295 16.4098 350.808 15.2334 350.808 14.0067C350.808 12.7801 351.295 11.6036 352.161 10.7356C353.028 9.86757 354.204 9.37906 355.431 9.37726H410.253C416.224 9.29386 416.283 18.7203 410.253 18.6362Z" fill="white"/>
<path d="M565.753 19.1362H510.931C509.703 19.1362 508.525 18.6484 507.657 17.7802C506.789 16.912 506.301 15.7345 506.301 14.5067C506.301 13.2789 506.789 12.1014 507.657 11.2332C508.525 10.365 509.703 9.87726 510.931 9.87726H565.753C571.724 9.79386 571.783 19.2203 565.753 19.1362Z" fill="#7C3AED"/>
<path d="M480.218 0.835938H478.218V26.8359H480.218V0.835938Z" fill="white"/>
<path d="M273.263 385.648H38.21C36.1156 385.646 34.1077 384.813 32.6267 383.332C31.1458 381.851 30.3127 379.843 30.3103 377.749V343.323C30.3127 341.229 31.1458 339.221 32.6267 337.74C34.1077 336.259 36.1156 335.426 38.21 335.424H273.263C275.357 335.426 277.365 336.259 278.846 337.74C280.327 339.221 281.16 341.229 281.163 343.323V377.749C281.16 379.843 280.327 381.851 278.846 383.332C277.365 384.813 275.357 385.646 273.263 385.648Z" fill="#F0F0F0"/>
<path d="M250.425 380.32H43.5398C41.4454 380.318 39.4375 379.484 37.9566 378.003C36.4756 376.523 35.6426 374.515 35.6401 372.42V348.656C35.6426 346.562 36.4756 344.554 37.9566 343.073C39.4375 341.592 41.4454 340.759 43.5398 340.756H267.935C270.029 340.759 272.037 341.592 273.518 343.073C274.999 344.554 275.832 346.562 275.834 348.656V354.91C275.827 361.647 273.147 368.106 268.384 372.869C263.62 377.633 257.162 380.312 250.425 380.32Z" fill="white"/>
<path d="M179.062 358.087H84.5881C84.0478 358.087 83.5296 357.872 83.1475 357.49C82.7654 357.108 82.5508 356.59 82.5508 356.05C82.5508 355.509 82.7654 354.991 83.1475 354.609C83.5296 354.227 84.0478 354.012 84.5881 354.012H179.062C179.602 354.012 180.12 354.227 180.502 354.609C180.884 354.991 181.099 355.509 181.099 356.05C181.099 356.59 180.884 357.108 180.502 357.49C180.12 357.872 179.602 358.087 179.062 358.087Z" fill="#E6E6E6"/>
<path d="M226.885 366.42H84.588C84.3201 366.42 84.0546 366.368 83.8069 366.266C83.5592 366.164 83.3341 366.014 83.1444 365.825C82.9548 365.636 82.8043 365.411 82.7017 365.163C82.599 364.916 82.5461 364.65 82.5461 364.383C82.5461 364.115 82.599 363.849 82.7017 363.602C82.8043 363.354 82.9548 363.13 83.1444 362.94C83.3341 362.751 83.5592 362.601 83.8069 362.499C84.0546 362.397 84.3201 362.345 84.588 362.345H226.885C227.425 362.346 227.942 362.562 228.323 362.944C228.704 363.325 228.918 363.843 228.918 364.383C228.918 364.922 228.704 365.44 228.323 365.822C227.942 366.203 227.425 366.419 226.885 366.42Z" fill="#E6E6E6"/>
<path d="M533.364 517.788L520.974 517.787L515.079 469.998L533.366 469.999L533.364 517.788Z" fill="#A0616A"/>
<path d="M533.034 513.739L519.814 508.369L519.424 508.209L512.124 513.739C508.118 513.738 504.266 515.285 501.373 518.055C498.479 520.826 496.767 524.607 496.594 528.609C496.574 528.829 496.574 529.059 496.574 529.289V529.799H536.524V513.739H533.034Z" fill="#2F2E41"/>
<path d="M504.348 506.258L492.66 510.37L471.238 467.245L488.488 461.177L504.348 506.258Z" fill="#A0616A"/>
<path d="M502.693 502.548L488.44 501.87L488.019 501.849L482.968 509.488C479.189 510.817 476.069 513.554 474.259 517.128C472.449 520.702 472.089 524.837 473.254 528.67C473.308 528.884 473.385 529.101 473.461 529.318L473.63 529.799L511.316 516.539L505.985 501.39L502.693 502.548Z" fill="#2F2E41"/>
<path d="M537.742 311.73C549.077 311.29 535.036 401.62 535.036 401.62C535.036 401.62 539.143 480.925 538.272 485.087C537.402 489.249 538.163 500.473 538.163 500.473C535.942 496.431 513.03 499.482 513.03 499.482L509.914 419.106L494 354.706L471.938 397.874L493.084 464.135C493.084 464.135 501.647 472.059 500.736 475.19C499.826 478.322 477.395 485.383 473.274 485.543C469.152 485.703 471.013 480.471 470.813 475.319C470.613 470.166 451.217 422.414 444.395 406.166C437.573 389.919 442.877 367.009 446.359 350.362C449.842 333.714 468.163 302.473 468.163 302.473C490.904 276.823 526.407 312.169 537.742 311.73Z" fill="#2F2E41"/>
<path d="M399.605 238.732C400.226 239.918 401.099 240.954 402.163 241.766C403.228 242.578 404.458 243.147 405.766 243.433C407.074 243.718 408.429 243.713 409.735 243.419C411.041 243.124 412.266 242.547 413.325 241.727L440.583 259.511L440.5 242.598L414.628 228.303C413.134 226.616 411.072 225.535 408.834 225.266C406.595 224.998 404.336 225.559 402.485 226.844C400.633 228.13 399.317 230.05 398.786 232.241C398.255 234.432 398.547 236.741 399.605 238.732Z" fill="#A0616A"/>
<path d="M531.855 326.21C503.745 326.211 488.255 320.584 480.029 315.56C469.97 309.416 468.249 302.938 468.18 302.665L468.16 302.586L469.139 290.266L469.568 289.307C471.541 284.891 471.803 279.899 470.302 275.3L470.271 275.206L470.279 275.107L476.852 189.862L500.112 182.243L506.878 175.444L537.006 175.007L541.203 183.518L564.954 192.459L553.286 261.916L547.692 271.557L549.943 282.06L549.927 282.155L542.589 325.955L542.185 325.972C538.566 326.134 535.123 326.214 531.855 326.21Z" fill="#3F3D56"/>
<path d="M459.133 273.029L448.105 266.491L447.414 265.493C446.01 263.473 444.153 261.81 441.99 260.638C439.827 259.466 437.419 258.818 434.96 258.745L434.832 258.741L419.643 249.811L425.939 231.368L449.749 238.402L466.349 197.157C467.261 194.892 468.783 192.924 470.746 191.472C472.709 190.021 475.037 189.142 477.47 188.934C479.902 188.726 482.345 189.197 484.526 190.295C486.708 191.392 488.542 193.073 489.824 195.151C491.139 197.322 491.82 199.818 491.792 202.356V229.343L491.692 229.477L459.133 273.029Z" fill="#3F3D56"/>
<path d="M532.86 310.348C533.096 309.03 533.618 307.779 534.389 306.685C535.16 305.59 536.162 304.678 537.324 304.013C538.486 303.348 539.78 302.945 541.114 302.834C542.448 302.722 543.791 302.905 545.047 303.369L565.703 278.217L570.705 294.373L550.323 315.781C549.404 317.839 547.762 319.489 545.708 320.418C543.654 321.347 541.331 321.49 539.178 320.82C537.026 320.151 535.194 318.715 534.029 316.785C532.865 314.854 532.449 312.564 532.86 310.348Z" fill="#A0616A"/>
<path d="M563.744 307.169L550.028 293.452L558.76 272.177L571.413 254.899C557.929 248.334 547.808 232.784 540.474 219.911L540.391 219.766L542.218 205.462C542.645 202.117 543.985 198.953 546.091 196.319C547.923 194.028 550.276 192.209 552.954 191.015C555.633 189.82 558.559 189.283 561.487 189.451C564.415 189.618 567.26 190.484 569.785 191.976C572.31 193.469 574.441 195.544 576 198.028L600.592 252.697L600.315 253.11L580.534 286.829L575.136 290.33L563.744 307.169Z" fill="#3F3D56"/>
<path d="M543.573 146.333C542.669 152.924 539.185 158.887 533.886 162.912C528.588 166.936 521.909 168.693 515.316 167.795C508.723 166.898 502.756 163.421 498.726 158.127C494.696 152.833 492.932 146.155 493.822 139.562L493.871 139.205C494.911 132.7 498.467 126.864 503.771 122.956C509.075 119.049 515.703 117.383 522.224 118.318C528.746 119.253 534.638 122.715 538.631 127.955C542.623 133.196 544.395 139.796 543.565 146.332L543.573 146.333Z" fill="#A0616A"/>
<path d="M537.184 159.263C538.473 156.645 539.797 153.833 539.435 150.937C539.073 148.04 536.232 145.272 533.443 146.133C531.775 146.647 530.514 148.294 528.771 148.379C526.372 148.495 524.997 145.749 524.25 143.466L521.209 134.17C518.289 136.446 514.902 138.049 511.291 138.865C507.68 139.681 503.933 139.69 500.318 138.891C497.495 138.245 494.642 136.987 492.986 134.611C491.33 132.234 491.34 128.549 493.611 126.752C494.725 125.871 496.208 125.536 497.272 124.596C497.932 124.013 498.388 123.233 498.57 122.371C498.752 121.509 498.652 120.611 498.285 119.811C497.918 119.01 497.302 118.349 496.53 117.925C495.758 117.501 494.869 117.337 493.996 117.458L501.653 116.501L499.372 112.375C500.239 112.965 501.22 113.367 502.252 113.557C503.284 113.746 504.344 113.718 505.364 113.474C507.424 113.103 509.364 112.255 511.379 111.689C516.264 110.442 521.423 110.823 526.071 112.775C530.72 114.727 534.604 118.143 537.134 122.504C539.018 121.875 541.049 121.833 542.957 122.384C544.866 122.935 546.562 124.053 547.821 125.59C549.87 128.191 550.428 131.663 550.507 134.974C550.656 141.503 549.233 147.971 546.357 153.834C545.532 155.696 544.347 157.377 542.87 158.78C542.127 159.475 541.24 160 540.272 160.316C539.305 160.633 538.28 160.733 537.269 160.612" fill="#2F2E41"/>
<path d="M130.373 133.433C130.783 139.28 132.505 144.96 135.413 150.049C141.54 160.81 152.048 168.601 163.365 173.232C177.504 179.018 193.265 179.196 208.27 177.906C222.206 176.708 236.001 173.93 249.989 173.358C260.807 173.012 271.635 173.27 282.424 174.131C303.356 175.617 324.201 178.374 344.911 181.715C350.52 182.609 356.117 183.57 361.702 184.597C362.23 184.643 362.752 184.74 363.262 184.887C363.363 184.928 363.526 184.896 363.619 184.954C363.788 185.06 362.937 184.685 363.453 185.111C364.171 185.865 364.812 186.689 365.365 187.572L373.014 197.415C375.207 200.238 377.243 203.668 380.078 205.892C382.077 207.437 384.488 208.354 387.008 208.53C389.528 208.706 392.043 208.131 394.237 206.879C396.529 205.431 398.356 203.355 399.502 200.898C401.262 197.671 403.361 194.642 405.764 191.861C414.863 181.245 427.511 174.715 438.089 165.783C443.212 161.634 447.585 156.635 451.017 151.005C453.944 145.911 455.764 140.256 456.358 134.41C457.625 122.539 453.982 110.433 447.855 100.334C441.191 89.4841 431.617 80.7211 420.221 75.0401C407.419 68.5181 393.253 65.3411 379.053 63.7581C363.977 62.0771 348.725 62.0821 333.575 62.2521C316.572 62.4411 299.601 63.1891 282.66 64.4951C265.696 65.8081 248.799 67.6741 231.969 70.0941C215.819 72.4161 199.473 74.8361 183.665 78.9441C169.7 82.5741 155.774 88.2471 145.346 98.5251C136.074 107.664 129.625 120.171 130.373 133.433Z" fill="#7C3AED"/>
<path d="M208.434 137.21C207.743 137.178 207.067 137.005 206.447 136.699C205.827 136.394 205.277 135.964 204.831 135.435C204.386 134.907 204.054 134.292 203.858 133.63C203.662 132.967 203.605 132.271 203.691 131.585L204.05 128.76C204.118 128.219 204.054 127.668 203.863 127.157C203.672 126.645 203.359 126.188 202.952 125.823L200.83 123.927C200.135 123.307 199.628 122.504 199.366 121.61C199.103 120.716 199.096 119.766 199.345 118.869C199.595 117.971 200.09 117.161 200.776 116.53C201.461 115.899 202.31 115.473 203.225 115.299L206.022 114.768C206.559 114.666 207.062 114.435 207.49 114.096C207.917 113.756 208.255 113.318 208.476 112.819L209.624 110.211C210 109.359 210.606 108.629 211.376 108.103C212.145 107.578 213.046 107.278 213.976 107.237C214.907 107.197 215.831 107.418 216.642 107.875C217.454 108.332 218.122 109.007 218.57 109.823L219.939 112.319C220.201 112.799 220.577 113.207 221.032 113.509C221.488 113.81 222.01 113.997 222.553 114.052L225.385 114.338C226.312 114.432 227.195 114.783 227.932 115.352C228.67 115.921 229.234 116.685 229.56 117.558C229.886 118.431 229.961 119.378 229.777 120.291C229.593 121.204 229.158 122.048 228.519 122.727L226.569 124.8C226.194 125.197 225.922 125.68 225.776 126.206C225.63 126.732 225.615 127.285 225.73 127.819L226.332 130.603C226.529 131.514 226.467 132.461 226.154 133.338C225.841 134.215 225.288 134.987 224.559 135.567C223.83 136.147 222.953 136.511 222.028 136.618C221.103 136.726 220.166 136.572 219.323 136.175L216.748 134.962C216.255 134.728 215.711 134.618 215.165 134.641C214.62 134.665 214.088 134.821 213.616 135.096L211.155 136.529C210.332 137.011 209.387 137.247 208.434 137.21Z" fill="white"/>
<path d="M248.529 136.045C247.259 135.986 246.057 135.45 245.166 134.543C244.627 133.973 244.225 133.287 243.99 132.538C243.756 131.789 243.695 130.997 243.812 130.221L244.141 127.629C244.211 127.077 244.146 126.516 243.951 125.995C243.756 125.474 243.438 125.008 243.023 124.637L241.055 122.878C240.474 122.383 240.012 121.764 239.7 121.067C239.389 120.37 239.237 119.613 239.256 118.85C239.299 117.72 239.724 116.637 240.463 115.781C241.201 114.924 242.209 114.344 243.321 114.134L246.085 113.609C246.632 113.505 247.145 113.27 247.581 112.924C248.016 112.577 248.361 112.13 248.585 111.621L249.616 109.281C249.984 108.393 250.59 107.624 251.368 107.058C252.145 106.493 253.063 106.152 254.022 106.075C254.961 106.022 255.896 106.236 256.718 106.694C257.54 107.151 258.216 107.833 258.666 108.659L260.018 111.126C260.286 111.614 260.669 112.03 261.133 112.337C261.597 112.645 262.13 112.835 262.684 112.891L265.308 113.156C266.07 113.216 266.808 113.444 267.47 113.826C268.131 114.207 268.7 114.731 269.133 115.36C269.762 116.299 270.053 117.425 269.959 118.551C269.864 119.678 269.391 120.74 268.615 121.562L266.687 123.611C266.306 124.016 266.029 124.508 265.88 125.043C265.732 125.579 265.715 126.143 265.833 126.686L266.388 129.257C266.566 129.999 266.577 130.771 266.421 131.518C266.264 132.265 265.944 132.968 265.482 133.576C264.786 134.469 263.805 135.098 262.703 135.359C261.6 135.619 260.442 135.497 259.419 135.01L256.87 133.81C256.367 133.573 255.815 133.461 255.259 133.486C254.704 133.51 254.163 133.669 253.683 133.948L251.251 135.364C250.427 135.847 249.483 136.083 248.529 136.045Z" fill="white"/>
<path d="M288.728 135.875C288.038 135.844 287.361 135.671 286.741 135.365C286.121 135.06 285.571 134.63 285.126 134.101C284.68 133.573 284.349 132.958 284.153 132.295C283.957 131.633 283.9 130.937 283.986 130.251L284.344 127.426C284.413 126.884 284.349 126.334 284.158 125.822C283.966 125.311 283.654 124.853 283.247 124.489L281.125 122.593C280.43 121.973 279.923 121.17 279.66 120.276C279.398 119.382 279.391 118.432 279.64 117.534C279.889 116.637 280.385 115.827 281.07 115.196C281.756 114.565 282.605 114.139 283.52 113.965L286.317 113.433C286.853 113.332 287.357 113.101 287.784 112.762C288.212 112.422 288.55 111.984 288.77 111.484L289.918 108.877C290.294 108.025 290.901 107.294 291.67 106.769C292.44 106.243 293.34 105.943 294.271 105.903C295.202 105.863 296.125 106.084 296.937 106.541C297.749 106.997 298.417 107.672 298.865 108.489L300.234 110.985C300.496 111.464 300.871 111.872 301.327 112.174C301.782 112.476 302.304 112.663 302.848 112.718L305.68 113.004C306.607 113.098 307.489 113.449 308.227 114.018C308.965 114.587 309.528 115.351 309.854 116.224C310.181 117.097 310.256 118.043 310.072 118.957C309.888 119.87 309.452 120.714 308.814 121.392L306.864 123.466C306.489 123.863 306.217 124.346 306.071 124.872C305.925 125.398 305.909 125.951 306.025 126.485L306.627 129.269C306.824 130.179 306.762 131.127 306.449 132.004C306.135 132.881 305.583 133.653 304.854 134.233C304.125 134.812 303.248 135.177 302.323 135.284C301.398 135.391 300.461 135.238 299.618 134.841L297.043 133.627C296.549 133.393 296.006 133.283 295.46 133.307C294.914 133.33 294.382 133.487 293.911 133.762L291.45 135.195C290.626 135.677 289.682 135.913 288.728 135.875Z" fill="white"/>
<path opacity="0.2" d="M327.829 134.814C327.139 134.783 326.462 134.61 325.842 134.304C325.222 133.999 324.672 133.569 324.227 133.04C323.781 132.512 323.45 131.897 323.254 131.234C323.057 130.572 323.001 129.876 323.086 129.19L323.445 126.365C323.514 125.823 323.45 125.273 323.258 124.761C323.067 124.25 322.755 123.792 322.348 123.428L320.226 121.532C319.531 120.911 319.024 120.109 318.761 119.215C318.499 118.321 318.492 117.371 318.741 116.473C318.99 115.576 319.486 114.766 320.171 114.135C320.857 113.504 321.705 113.077 322.621 112.904L325.418 112.372C325.954 112.271 326.458 112.04 326.885 111.701C327.312 111.361 327.651 110.923 327.871 110.423L329.019 107.816C329.395 106.964 330.002 106.233 330.771 105.708C331.54 105.182 332.441 104.882 333.372 104.842C334.303 104.802 335.226 105.023 336.038 105.48C336.85 105.936 337.517 106.611 337.966 107.428L339.334 109.924C339.597 110.403 339.972 110.811 340.428 111.113C340.883 111.415 341.405 111.602 341.949 111.657L344.781 111.943C345.708 112.037 346.59 112.388 347.328 112.957C348.065 113.526 348.629 114.29 348.955 115.163C349.281 116.036 349.357 116.982 349.173 117.896C348.989 118.809 348.553 119.653 347.915 120.331L345.964 122.405C345.59 122.802 345.318 123.285 345.172 123.811C345.026 124.337 345.01 124.89 345.126 125.424L345.728 128.208C345.924 129.118 345.863 130.066 345.55 130.943C345.236 131.82 344.684 132.592 343.955 133.172C343.226 133.751 342.349 134.116 341.424 134.223C340.498 134.33 339.561 134.177 338.719 133.78L336.144 132.566C335.65 132.332 335.107 132.222 334.561 132.246C334.015 132.269 333.483 132.426 333.011 132.701L330.551 134.134C329.727 134.616 328.783 134.852 327.829 134.814Z" fill="black"/>
<path opacity="0.2" d="M366.93 133.754C366.24 133.722 365.563 133.549 364.943 133.243C364.323 132.938 363.773 132.508 363.328 131.979C362.882 131.451 362.551 130.836 362.354 130.174C362.158 129.511 362.101 128.815 362.187 128.129L362.546 125.304C362.615 124.763 362.55 124.212 362.359 123.701C362.168 123.189 361.855 122.731 361.448 122.367L359.327 120.471C358.632 119.851 358.124 119.048 357.862 118.154C357.6 117.26 357.593 116.31 357.842 115.413C358.091 114.515 358.586 113.705 359.272 113.074C359.958 112.443 360.806 112.017 361.722 111.843L364.519 111.312C365.055 111.21 365.559 110.979 365.986 110.64C366.413 110.3 366.752 109.862 366.972 109.363L368.12 106.755C368.496 105.903 369.103 105.173 369.872 104.647C370.641 104.122 371.542 103.822 372.473 103.781C373.403 103.741 374.327 103.962 375.139 104.419C375.95 104.876 376.618 105.551 377.067 106.367L378.435 108.863C378.698 109.343 379.073 109.751 379.528 110.053C379.984 110.354 380.506 110.541 381.05 110.596L383.882 110.882C384.809 110.976 385.691 111.327 386.429 111.896C387.166 112.465 387.73 113.229 388.056 114.102C388.382 114.975 388.458 115.921 388.274 116.835C388.09 117.748 387.654 118.592 387.015 119.271L385.065 121.344C384.691 121.741 384.419 122.224 384.273 122.75C384.127 123.276 384.111 123.829 384.227 124.363L384.828 127.147C385.025 128.058 384.964 129.005 384.65 129.882C384.337 130.759 383.785 131.531 383.055 132.111C382.326 132.691 381.45 133.055 380.524 133.162C379.599 133.27 378.662 133.116 377.82 132.719L375.244 131.506C374.751 131.272 374.208 131.162 373.662 131.185C373.116 131.209 372.584 131.365 372.112 131.64L369.652 133.073C368.828 133.555 367.884 133.791 366.93 133.754Z" fill="black"/>
<path d="M616.042 467.37L617.186 441.65C629.11 435.276 642.41 431.91 655.93 431.842C637.322 447.056 639.647 476.383 627.031 496.842C623.048 503.193 617.686 508.566 611.343 512.563C605.001 516.559 597.84 519.078 590.392 519.931L574.82 529.466C572.683 517.553 573.154 505.32 576.201 493.607C579.247 481.895 584.797 470.982 592.467 461.62C596.822 456.411 601.815 451.771 607.33 447.81C611.059 457.644 616.042 467.37 616.042 467.37Z" fill="#F2F2F2"/>
<path d="M705.318 531.718H287.936C287.62 531.718 287.318 531.593 287.094 531.37C286.871 531.146 286.746 530.843 286.746 530.528C286.746 530.212 286.871 529.909 287.094 529.686C287.318 529.462 287.62 529.337 287.936 529.337H705.318C705.634 529.337 705.937 529.462 706.16 529.686C706.383 529.909 706.509 530.212 706.509 530.528C706.509 530.843 706.383 531.146 706.16 531.37C705.937 531.593 705.634 531.718 705.318 531.718Z" fill="#CACACA"/>
</svg>
